<?xml version="1.0" encoding="iso-8859-1"?>
<!-- Generator: Adobe Illustrator 16.0.0, SVG Export Plug-In . SVG Version: 6.00 Build 0)  -->
<!DOCTYPE svg PUBLIC "-//W3C//DTD SVG 1.1//EN" "http://www.w3.org/Graphics/SVG/1.1/DTD/svg11.dtd">
<svg version="1.1" id="Layer_1" xmlns="http://www.w3.org/2000/svg" xmlns:xlink="http://www.w3.org/1999/xlink" x="0px" y="0px"
	 width="488.682px" height="168.031px" viewBox="0 0 488.682 168.031" enable-background="new 0 0 488.682 168.031"
	 xml:space="preserve">
<image display="none" overflow="visible" width="608" height="553" xlink:href="../Downloads/Captura de Tela 2016-05-26 a&#x300;s 18.03.05.png"  transform="matrix(1.6414 0 0 1.6414 472.7256 -349.4634)">
</image>
<g id="XMLID_1_">
	<g id="XMLID_10_">
		<linearGradient id="XMLID_18_" gradientUnits="userSpaceOnUse" x1="237.3789" y1="137.498" x2="237.3789" y2="2.9668">
			<stop  offset="0" style="stop-color:#026094"/>
			<stop  offset="0.5" style="stop-color:#035CA8"/>
			<stop  offset="0.9944" style="stop-color:#8AD0C3"/>
		</linearGradient>
		<polygon id="XMLID_15_" fill="url(#XMLID_18_)" points="447.761,73.985 447.641,74.129 394.048,137.498 26.997,116.577 
			38.396,77.643 44.125,58.069 59.148,6.74 404.157,2.967 		"/>
		<linearGradient id="XMLID_19_" gradientUnits="userSpaceOnUse" x1="237.251" y1="140.5234" x2="237.251" y2="0">
			<stop  offset="0.0056" style="stop-color:#8AD0C3"/>
			<stop  offset="0.5" style="stop-color:#46C2F0"/>
			<stop  offset="1" style="stop-color:#8ABCE6"/>
		</linearGradient>
		<path id="XMLID_12_" fill="url(#XMLID_19_)" d="M395.349,140.523L23.124,119.31L56.932,3.816L405.796,0l45.582,74.239
			l-1.463,1.769L395.349,140.523z M30.869,113.844l361.877,20.625l51.386-60.756l-41.614-67.78L61.365,9.666L30.869,113.844z"/>
	</g>
	<defs>
		<filter id="Adobe_OpacityMaskFilter" filterUnits="userSpaceOnUse" x="0" y="137.338" width="488.682" height="30.693">
			<feFlood  style="flood-color:white;flood-opacity:1" result="back"/>
			<feBlend  in="SourceGraphic" in2="back" mode="normal"/>
		</filter>
	</defs>
	<mask maskUnits="userSpaceOnUse" x="0" y="137.338" width="488.682" height="30.693" id="XMLID_21_">
		<g id="XMLID_8_" filter="url(#Adobe_OpacityMaskFilter)">
			<defs>
				<filter id="Adobe_OpacityMaskFilter_1_" filterUnits="userSpaceOnUse" x="0" y="137.338" width="488.682" height="30.693">
					<feFlood  style="flood-color:white;flood-opacity:1" result="back"/>
					<feBlend  in="SourceGraphic" in2="back" mode="normal"/>
				</filter>
			</defs>
			<mask maskUnits="userSpaceOnUse" x="0" y="137.338" width="488.682" height="30.693" id="XMLID_21_">
			</mask>
			
				<radialGradient id="XMLID_22_" cx="383.9614" cy="2115.6812" r="182.0171" gradientTransform="matrix(1.3426 0 0 0.0843 -271.1654 -25.668)" gradientUnits="userSpaceOnUse">
				<stop  offset="0" style="stop-color:#FFFFFF"/>
				<stop  offset="1" style="stop-color:#000000"/>
			</radialGradient>
			<ellipse id="XMLID_11_" mask="url(#XMLID_21_)" fill="url(#XMLID_22_)" cx="244.341" cy="152.685" rx="244.341" ry="15.346"/>
		</g>
	</mask>
	
		<radialGradient id="XMLID_23_" cx="383.9614" cy="2115.6812" r="182.0171" gradientTransform="matrix(1.3426 0 0 0.0843 -271.1654 -25.668)" gradientUnits="userSpaceOnUse">
		<stop  offset="0" style="stop-color:#676767"/>
		<stop  offset="1" style="stop-color:#FFFFFF"/>
	</radialGradient>
	<ellipse id="XMLID_9_" opacity="0.71" fill="url(#XMLID_23_)" cx="244.341" cy="152.685" rx="244.341" ry="15.346"/>
	<defs>
		<filter id="Adobe_OpacityMaskFilter_2_" filterUnits="userSpaceOnUse" x="46.805" y="2.967" width="400.957" height="71.162">
			<feFlood  style="flood-color:white;flood-opacity:1" result="back"/>
			<feBlend  in="SourceGraphic" in2="back" mode="normal"/>
		</filter>
	</defs>
	<mask maskUnits="userSpaceOnUse" x="46.805" y="2.967" width="400.957" height="71.162" id="XMLID_24_">
		<g id="XMLID_3_" filter="url(#Adobe_OpacityMaskFilter_2_)">
			<defs>
				<filter id="Adobe_OpacityMaskFilter_3_" filterUnits="userSpaceOnUse" x="46.805" y="2.967" width="400.957" height="71.162">
					<feFlood  style="flood-color:white;flood-opacity:1" result="back"/>
					<feBlend  in="SourceGraphic" in2="back" mode="normal"/>
				</filter>
			</defs>
			<mask maskUnits="userSpaceOnUse" x="46.805" y="2.967" width="400.957" height="71.162" id="XMLID_24_">
			</mask>
			<linearGradient id="XMLID_26_" gradientUnits="userSpaceOnUse" x1="247.2832" y1="74.1289" x2="247.2832" y2="2.9668">
				<stop  offset="0" style="stop-color:#FFFFFF"/>
				<stop  offset="1" style="stop-color:#000000"/>
			</linearGradient>
			<polygon id="XMLID_6_" mask="url(#XMLID_24_)" fill="url(#XMLID_26_)" points="447.761,73.985 447.641,74.129 46.805,48.484 
				59.148,6.74 404.157,2.967 			"/>
		</g>
	</mask>
	<linearGradient id="XMLID_27_" gradientUnits="userSpaceOnUse" x1="247.2832" y1="74.1289" x2="247.2832" y2="2.9668">
		<stop  offset="0" style="stop-color:#FFFFFF"/>
		<stop  offset="1" style="stop-color:#EDEDED"/>
	</linearGradient>
	<polygon id="XMLID_7_" opacity="0.62" fill="url(#XMLID_27_)" points="447.761,73.985 447.641,74.129 46.805,48.484 59.148,6.74 
		404.157,2.967 	"/>
</g>
<g>
	<path fill="#FFFFFF" d="M107.433,40.952V68.89c0,8.353,3.168,12.601,8.785,12.601c5.761,0,8.929-4.032,8.929-12.601V40.952h10.945
		V68.17c0,14.977-7.561,22.105-20.234,22.105c-12.241,0-19.442-6.769-19.442-22.25V40.952H107.433z"/>
	<path fill="#FFFFFF" d="M144.224,79.907c2.016,1.225,6.192,2.665,9.433,2.665c3.312,0,4.68-1.152,4.68-2.953
		c0-1.8-1.08-2.664-5.185-4.032c-7.272-2.448-10.081-6.408-10.009-10.585c0-6.553,5.617-11.521,14.329-11.521
		c4.104,0,7.777,0.936,9.937,2.016l-1.944,7.561c-1.584-0.863-4.608-2.016-7.632-2.016c-2.665,0-4.176,1.08-4.176,2.88
		c0,1.656,1.368,2.521,5.688,4.032c6.696,2.305,9.504,5.688,9.577,10.873c0,6.553-5.185,11.377-15.265,11.377
		c-4.608,0-8.713-1.008-11.377-2.448L144.224,79.907z"/>
	<path fill="#FFFFFF" d="M183.968,75.371c0.36,4.536,4.825,6.696,9.937,6.696c3.744,0,6.769-0.504,9.721-1.439l1.44,7.416
		c-3.601,1.44-7.993,2.16-12.745,2.16c-11.953,0-18.794-6.912-18.794-17.93c0-8.929,5.545-18.793,17.786-18.793
		c11.377,0,15.697,8.856,15.697,17.569c0,1.872-0.216,3.528-0.36,4.32H183.968z M196.857,67.882c0-2.664-1.152-7.129-6.192-7.129
		c-4.608,0-6.48,4.177-6.769,7.129H196.857z"/>
	<path fill="#FFFFFF" d="M232.353,66.946v7.272h-18.866v-7.272H232.353z"/>
	<path fill="#FFFFFF" d="M238.903,65.505c0-4.392-0.144-8.137-0.288-11.232h9.217l0.504,4.752h0.216
		c1.512-2.231,4.608-5.544,10.657-5.544c4.536,0,8.137,2.304,9.649,5.977h0.144c1.296-1.801,2.88-3.24,4.536-4.249
		c1.944-1.151,4.104-1.728,6.697-1.728c6.769,0,11.881,4.752,11.881,15.265v20.738h-10.657V70.331c0-5.112-1.656-8.065-5.185-8.065
		c-2.521,0-4.32,1.729-5.041,3.816c-0.288,0.792-0.432,1.944-0.432,2.809v20.594h-10.657V69.754c0-4.465-1.584-7.489-5.041-7.489
		c-2.808,0-4.464,2.16-5.112,3.961c-0.36,0.864-0.432,1.872-0.432,2.736v20.521h-10.657V65.505z"/>
	<path fill="#FFFFFF" d="M309.246,75.371c0.36,4.536,4.825,6.696,9.937,6.696c3.745,0,6.769-0.504,9.721-1.439l1.44,7.416
		c-3.601,1.44-7.993,2.16-12.745,2.16c-11.953,0-18.794-6.912-18.794-17.93c0-8.929,5.545-18.793,17.786-18.793
		c11.377,0,15.697,8.856,15.697,17.569c0,1.872-0.216,3.528-0.36,4.32H309.246z M322.135,67.882c0-2.664-1.152-7.129-6.192-7.129
		c-4.608,0-6.48,4.177-6.769,7.129H322.135z"/>
</g>
</svg>
